<svg width="203" height="207" xmlns="http://www.w3.org/2000/svg" xmlns:xlink="http://www.w3.org/1999/xlink" xml:space="preserve" overflow="hidden"><defs><clipPath id="clip0"><rect x="604" y="100" width="203" height="207"/></clipPath></defs><g clip-path="url(#clip0)" transform="translate(-604 -100)"><path d="M162.4 134.487C153.096 126.875 141.254 121.8 129.412 118.417 120.954 115.879 111.65 114.187 101.5 114.187 92.1958 114.187 82.8917 115.879 73.5875 118.417 61.7458 121.8 49.9042 127.721 40.6 134.487 36.3708 137.871 33.8333 142.946 33.8333 148.021L33.8333 181.854 169.167 181.854 169.167 148.021C169.167 142.946 166.629 137.871 162.4 134.487Z" fill="#A40000" transform="matrix(1 0 0 1.0197 604 100)"/><path d="M68.5125 43.1375C69.7812 43.1375 70.8385 42.7146 71.4729 41.8687L71.4729 41.8687C79.2969 34.2562 89.8698 29.6042 101.5 29.6042 124.76 29.6042 143.792 48.6354 143.792 71.8958L143.792 81.6229 119.474 89.6583C118.417 89.2354 117.359 88.8125 116.302 88.8125 112.707 88.8125 109.958 91.5615 109.958 95.1562 109.958 98.751 112.707 101.5 116.302 101.5 118.84 101.5 121.166 100.02 122.223 97.6937L155.845 86.4865C157.536 85.8521 158.805 84.3719 158.805 82.4688L158.805 63.4375C158.805 61.1115 156.902 59.2083 154.576 59.2083L150.77 59.2083C145.06 37.4281 125.183 21.1458 101.5 21.1458 87.7552 21.1458 75.2792 26.6437 65.975 35.525 64.9177 36.3708 64.2833 37.4281 64.2833 38.9083 64.2833 41.2344 66.1865 43.1375 68.5125 43.1375Z" fill="#A40000" transform="matrix(1 0 0 1.0197 604 100)"/><path d="M135.122 75.4906C135.333 74.2219 135.333 73.1646 135.333 71.8958 135.333 53.2875 120.108 38.0625 101.5 38.0625 82.8917 38.0625 67.6667 53.2875 67.6667 71.8958 67.6667 90.5042 82.8917 105.729 101.5 105.729 102.134 105.729 102.98 105.729 103.615 105.518L103.615 95.1562 103.615 95.1562C103.615 93.2531 104.037 91.35 104.883 89.4469 106.364 86.4865 108.901 84.1604 112.284 83.1031L135.122 75.4906Z" fill="#A40000" transform="matrix(1 0 0 1.0197 604 100)"/></g></svg>